<svg width="67" height="66" viewBox="0 0 67 66" fill="none" xmlns="http://www.w3.org/2000/svg">
<g id="Group 67">
<g id="Group 66">
<rect id="background" x="0.949707" y="0.0161133" width="65.7445" height="65.7445" rx="32.0293" fill="#FABB18" fill-opacity="0.1"/>
</g>
<path id="Path 107" fill-rule="evenodd" clip-rule="evenodd" d="M32.5674 27.0064C32.5843 26.7868 32.7674 26.6172 32.9876 26.6172H33.5765C33.7931 26.6172 33.9743 26.7813 33.9959 26.9968L34.6382 33.4203L39.188 36.0201C39.3193 36.0952 39.4004 36.2348 39.4004 36.3861V36.9503C39.4004 37.2282 39.1361 37.43 38.868 37.3569L32.2531 35.5528C32.058 35.4996 31.9282 35.3155 31.9437 35.1139L32.5674 27.0064Z" fill="#FABB18"/>
<path id="Combined Shape" fill-rule="evenodd" clip-rule="evenodd" d="M26.4173 17.9482C26.1947 17.6829 25.7649 17.7844 25.6845 18.1213L23.949 25.3971C23.8836 25.6716 24.1011 25.9317 24.3828 25.9157L31.8676 25.4915C32.2139 25.4719 32.3896 25.0656 32.1666 24.7999L30.2144 22.4734C31.4031 22.0672 32.6635 21.8551 33.9577 21.8551C40.345 21.8551 45.5229 27.033 45.5229 33.4202C45.5229 39.8075 40.345 44.9854 33.9577 44.9854C27.5705 44.9854 22.3926 39.8075 22.3926 33.4202C22.3926 32.348 22.5378 31.2978 22.8209 30.2884L20.2008 29.5535C19.8559 30.7833 19.6714 32.0802 19.6714 33.4202C19.6714 41.3104 26.0676 47.7066 33.9577 47.7066C41.8479 47.7066 48.2441 41.3104 48.2441 33.4202C48.2441 25.5301 41.8479 19.1339 33.9577 19.1339C31.9731 19.1339 30.083 19.5386 28.3655 20.2699L26.4173 17.9482Z" fill="#FABB18"/>
</g>
</svg>
