<svg width="30" height="28" viewBox="0 0 30 28" fill="none" xmlns="http://www.w3.org/2000/svg">
<g id="Group 48">
<path id="Combined Shape" fill-rule="evenodd" clip-rule="evenodd" d="M22.5399 23.225L13.6973 14.3977V1.79407C13.6973 0.91454 14.4115 0.201538 15.2926 0.201538C16.1737 0.201538 16.8879 0.91454 16.8879 1.79407V13.0784L24.7961 20.9728L28.9308 16.8452C29.1964 16.5802 29.6504 16.7679 29.6504 17.1428V26.8539C29.6504 27.0863 29.4617 27.2747 29.2289 27.2747H19.5008C19.1252 27.2747 18.9372 26.8214 19.2027 26.5564L22.5399 23.225Z" fill="#FABB18"/>
<path id="Combined Shape_2" fill-rule="evenodd" clip-rule="evenodd" d="M10.2742 16.3868L12.3351 18.8182L7.70677 22.7277L11.542 26.5562C11.8075 26.8213 11.6195 27.2745 11.2439 27.2745H1.40247C1.16967 27.2745 0.980957 27.0861 0.980957 26.8538V17.0295C0.980957 16.6546 1.43498 16.4668 1.70052 16.7319L5.44283 20.4677L10.2742 16.3868Z" fill="#FABB18"/>
</g>
</svg>
