<svg width="28" height="28" viewBox="0 0 28 28" fill="none" xmlns="http://www.w3.org/2000/svg">
<g id="Time-schedule">
<path id="Path 107" fill-rule="evenodd" clip-rule="evenodd" d="M12.2147 9.21165C12.2348 8.95115 12.452 8.75 12.7133 8.75H12.9644C13.2213 8.75 13.4364 8.94465 13.4619 9.20025L14.0002 14.5833L17.8316 16.7727C17.9874 16.8617 18.0836 17.0274 18.0836 17.2068V17.4287C18.0836 17.7584 17.7701 17.9978 17.452 17.9111L12.0656 16.4421C11.8342 16.379 11.6802 16.1605 11.6986 15.9213L12.2147 9.21165Z" fill="white"/>
<path id="Combined Shape" opacity="0.7" fill-rule="evenodd" clip-rule="evenodd" d="M7.12791 1.52768C6.8638 1.21293 6.35386 1.3334 6.25853 1.73306L4.87755 7.5227C4.79987 7.84835 5.05794 8.15685 5.39219 8.13791L11.3481 7.8004C11.759 7.77711 11.9673 7.29508 11.7028 6.97981L10.2067 5.19686C11.226 4.84858 12.3067 4.66667 13.4165 4.66667C18.8933 4.66667 23.3332 9.10651 23.3332 14.5833C23.3332 20.0602 18.8933 24.5 13.4165 24.5C7.93968 24.5 3.49984 20.0602 3.49984 14.5833C3.49984 13.6639 3.62434 12.7634 3.86712 11.8979L1.62049 11.2677C1.3247 12.3223 1.1665 13.4343 1.1665 14.5833C1.1665 21.3488 6.65102 26.8333 13.4165 26.8333C20.182 26.8333 25.6665 21.3488 25.6665 14.5833C25.6665 7.81785 20.182 2.33333 13.4165 2.33333C11.7148 2.33333 10.0941 2.68033 8.6213 3.30744L7.12791 1.52768Z" fill="white"/>
</g>
</svg>
