<svg width="28" height="28" viewBox="0 0 28 28" fill="none" xmlns="http://www.w3.org/2000/svg">
<g id="&#240;&#159;&#166;&#134; icon &#34;calendar&#34;">
<path id="Vector" d="M0 0H28V28H0V0Z" fill="white" fill-opacity="0.01"/>
<g id="Group">
<path id="Vector_2" d="M2.9165 11.0834H25.0832V23.3334C25.0832 23.9777 24.5609 24.5 23.9165 24.5H4.08317C3.43884 24.5 2.9165 23.9777 2.9165 23.3334V11.0834Z" fill="#B3B3B3" stroke="white" stroke-width="2" stroke-linejoin="round"/>
<path id="Vector_3" d="M2.9165 5.25004C2.9165 4.60571 3.43884 4.08337 4.08317 4.08337H23.9165C24.5609 4.08337 25.0832 4.60571 25.0832 5.25004V11.0834H2.9165V5.25004Z" stroke="white" stroke-width="2" stroke-linejoin="round"/>
<path id="Vector_4" d="M9.3335 2.33337V7.00004" stroke="white" stroke-width="2" stroke-linecap="round" stroke-linejoin="round"/>
<path id="Vector_5" d="M18.6665 2.33337V7.00004" stroke="white" stroke-width="2" stroke-linecap="round" stroke-linejoin="round"/>
<path id="Vector_6" d="M16.3335 19.8334H19.8335" stroke="white" stroke-width="2" stroke-linecap="round" stroke-linejoin="round"/>
<path id="Vector_7" d="M8.1665 19.8334H11.6665" stroke="white" stroke-width="2" stroke-linecap="round" stroke-linejoin="round"/>
<path id="Vector_8" d="M16.3335 15.1666H19.8335" stroke="white" stroke-width="2" stroke-linecap="round" stroke-linejoin="round"/>
<path id="Vector_9" d="M8.1665 15.1666H11.6665" stroke="white" stroke-width="2" stroke-linecap="round" stroke-linejoin="round"/>
</g>
</g>
</svg>
